<mxfile host="app.diagrams.net" modified="2023-06-29T05:31:59.566Z" agent="Mozilla/5.0 (Macintosh; Intel Mac OS X 10_15_7) AppleWebKit/537.36 (KHTML, like Gecko) Chrome/114.0.0.0 Safari/537.36" etag="8mIT2FN70xFFJkQZ7J8Y" version="21.5.2" type="device">
  <diagram name="第 1 页" id="fPWbPXWfI_YNypZdPtA8">
    <mxGraphModel dx="2261" dy="746" grid="1" gridSize="10" guides="1" tooltips="1" connect="1" arrows="1" fold="1" page="1" pageScale="1" pageWidth="827" pageHeight="1169" math="0" shadow="0">
      <root>
        <mxCell id="0" />
        <mxCell id="1" parent="0" />
        <mxCell id="nGuAZk_xyWCWXJKmBNWR-59" style="edgeStyle=orthogonalEdgeStyle;rounded=0;orthogonalLoop=1;jettySize=auto;html=1;exitX=0.5;exitY=1;exitDx=0;exitDy=0;entryX=0.25;entryY=0;entryDx=0;entryDy=0;" edge="1" parent="1" source="nGuAZk_xyWCWXJKmBNWR-1" target="nGuAZk_xyWCWXJKmBNWR-10">
          <mxGeometry relative="1" as="geometry">
            <Array as="points">
              <mxPoint x="255" y="230" />
              <mxPoint x="3" y="230" />
            </Array>
          </mxGeometry>
        </mxCell>
        <mxCell id="nGuAZk_xyWCWXJKmBNWR-71" style="edgeStyle=orthogonalEdgeStyle;rounded=0;orthogonalLoop=1;jettySize=auto;html=1;exitX=0;exitY=0.75;exitDx=0;exitDy=0;entryX=1;entryY=0.75;entryDx=0;entryDy=0;" edge="1" parent="1" source="nGuAZk_xyWCWXJKmBNWR-1" target="nGuAZk_xyWCWXJKmBNWR-76">
          <mxGeometry relative="1" as="geometry">
            <mxPoint x="-150" y="185" as="targetPoint" />
          </mxGeometry>
        </mxCell>
        <mxCell id="nGuAZk_xyWCWXJKmBNWR-72" value="2 Get ProxyActorRef" style="edgeLabel;html=1;align=center;verticalAlign=middle;resizable=0;points=[];" vertex="1" connectable="0" parent="nGuAZk_xyWCWXJKmBNWR-71">
          <mxGeometry x="0.4803" y="-7" relative="1" as="geometry">
            <mxPoint x="42" y="-8" as="offset" />
          </mxGeometry>
        </mxCell>
        <mxCell id="nGuAZk_xyWCWXJKmBNWR-1" value="DriverActor" style="shape=process;whiteSpace=wrap;html=1;backgroundOutline=1;" vertex="1" parent="1">
          <mxGeometry x="190" y="140" width="130" height="60" as="geometry" />
        </mxCell>
        <mxCell id="nGuAZk_xyWCWXJKmBNWR-2" value="State" style="swimlane;fontStyle=0;childLayout=stackLayout;horizontal=1;startSize=30;horizontalStack=0;resizeParent=1;resizeParentMax=0;resizeLast=0;collapsible=1;marginBottom=0;whiteSpace=wrap;html=1;" vertex="1" parent="1">
          <mxGeometry x="190" y="80" width="130" height="60" as="geometry" />
        </mxCell>
        <mxCell id="nGuAZk_xyWCWXJKmBNWR-3" value="QueueActorRef" style="text;strokeColor=none;fillColor=none;align=left;verticalAlign=middle;spacingLeft=4;spacingRight=4;overflow=hidden;points=[[0,0.5],[1,0.5]];portConstraint=eastwest;rotatable=0;whiteSpace=wrap;html=1;" vertex="1" parent="nGuAZk_xyWCWXJKmBNWR-2">
          <mxGeometry y="30" width="130" height="30" as="geometry" />
        </mxCell>
        <mxCell id="nGuAZk_xyWCWXJKmBNWR-6" value="QueueActor" style="shape=process;whiteSpace=wrap;html=1;backgroundOutline=1;" vertex="1" parent="1">
          <mxGeometry x="354" y="320" width="136" height="60" as="geometry" />
        </mxCell>
        <mxCell id="nGuAZk_xyWCWXJKmBNWR-8" value="1.Send JobRequest" style="text;html=1;align=center;verticalAlign=middle;resizable=0;points=[];autosize=1;strokeColor=none;fillColor=none;" vertex="1" parent="1">
          <mxGeometry x="-75" y="125" width="130" height="30" as="geometry" />
        </mxCell>
        <mxCell id="nGuAZk_xyWCWXJKmBNWR-18" style="edgeStyle=orthogonalEdgeStyle;rounded=0;orthogonalLoop=1;jettySize=auto;html=1;exitX=1;exitY=0.5;exitDx=0;exitDy=0;entryX=0;entryY=0.5;entryDx=0;entryDy=0;" edge="1" parent="1" source="nGuAZk_xyWCWXJKmBNWR-10" target="nGuAZk_xyWCWXJKmBNWR-6">
          <mxGeometry relative="1" as="geometry" />
        </mxCell>
        <mxCell id="nGuAZk_xyWCWXJKmBNWR-62" style="edgeStyle=orthogonalEdgeStyle;rounded=0;orthogonalLoop=1;jettySize=auto;html=1;exitX=0.5;exitY=0;exitDx=0;exitDy=0;entryX=0.25;entryY=1;entryDx=0;entryDy=0;" edge="1" parent="1" source="nGuAZk_xyWCWXJKmBNWR-10" target="nGuAZk_xyWCWXJKmBNWR-25">
          <mxGeometry relative="1" as="geometry">
            <Array as="points">
              <mxPoint x="35" y="250" />
              <mxPoint x="575" y="250" />
            </Array>
          </mxGeometry>
        </mxCell>
        <mxCell id="nGuAZk_xyWCWXJKmBNWR-87" style="edgeStyle=orthogonalEdgeStyle;rounded=0;orthogonalLoop=1;jettySize=auto;html=1;exitX=0;exitY=0.25;exitDx=0;exitDy=0;entryX=0.75;entryY=1;entryDx=0;entryDy=0;" edge="1" parent="1" source="nGuAZk_xyWCWXJKmBNWR-10" target="nGuAZk_xyWCWXJKmBNWR-76">
          <mxGeometry relative="1" as="geometry" />
        </mxCell>
        <mxCell id="nGuAZk_xyWCWXJKmBNWR-10" value="ProxyActor" style="shape=process;whiteSpace=wrap;html=1;backgroundOutline=1;" vertex="1" parent="1">
          <mxGeometry x="-30" y="320" width="130" height="60" as="geometry" />
        </mxCell>
        <mxCell id="nGuAZk_xyWCWXJKmBNWR-12" value="2 Create Proxy and send JobRequest to Proxy" style="text;html=1;align=center;verticalAlign=middle;resizable=0;points=[];autosize=1;strokeColor=none;fillColor=none;" vertex="1" parent="1">
          <mxGeometry x="-20" y="200" width="270" height="30" as="geometry" />
        </mxCell>
        <mxCell id="nGuAZk_xyWCWXJKmBNWR-14" value="State" style="swimlane;fontStyle=0;childLayout=stackLayout;horizontal=1;startSize=30;horizontalStack=0;resizeParent=1;resizeParentMax=0;resizeLast=0;collapsible=1;marginBottom=0;whiteSpace=wrap;html=1;" vertex="1" parent="1">
          <mxGeometry x="-30" y="380" width="130" height="120" as="geometry">
            <mxRectangle x="-30" y="410" width="70" height="30" as="alternateBounds" />
          </mxGeometry>
        </mxCell>
        <mxCell id="nGuAZk_xyWCWXJKmBNWR-15" value="QueueActorRef[2]" style="text;strokeColor=none;fillColor=none;align=left;verticalAlign=middle;spacingLeft=4;spacingRight=4;overflow=hidden;points=[[0,0.5],[1,0.5]];portConstraint=eastwest;rotatable=0;whiteSpace=wrap;html=1;" vertex="1" parent="nGuAZk_xyWCWXJKmBNWR-14">
          <mxGeometry y="30" width="130" height="30" as="geometry" />
        </mxCell>
        <mxCell id="nGuAZk_xyWCWXJKmBNWR-16" value="RequestMsg[2]" style="text;strokeColor=none;fillColor=none;align=left;verticalAlign=middle;spacingLeft=4;spacingRight=4;overflow=hidden;points=[[0,0.5],[1,0.5]];portConstraint=eastwest;rotatable=0;whiteSpace=wrap;html=1;" vertex="1" parent="nGuAZk_xyWCWXJKmBNWR-14">
          <mxGeometry y="60" width="130" height="30" as="geometry" />
        </mxCell>
        <mxCell id="nGuAZk_xyWCWXJKmBNWR-17" value="FSMActorRef[5]" style="text;strokeColor=none;fillColor=none;align=left;verticalAlign=middle;spacingLeft=4;spacingRight=4;overflow=hidden;points=[[0,0.5],[1,0.5]];portConstraint=eastwest;rotatable=0;whiteSpace=wrap;html=1;" vertex="1" parent="nGuAZk_xyWCWXJKmBNWR-14">
          <mxGeometry y="90" width="130" height="30" as="geometry" />
        </mxCell>
        <mxCell id="nGuAZk_xyWCWXJKmBNWR-19" value="3 Send JobRequest to QueueActor" style="text;html=1;align=center;verticalAlign=middle;resizable=0;points=[];autosize=1;strokeColor=none;fillColor=none;" vertex="1" parent="1">
          <mxGeometry x="100" y="320" width="210" height="30" as="geometry" />
        </mxCell>
        <mxCell id="nGuAZk_xyWCWXJKmBNWR-21" value="State" style="swimlane;fontStyle=0;childLayout=stackLayout;horizontal=1;startSize=30;horizontalStack=0;resizeParent=1;resizeParentMax=0;resizeLast=0;collapsible=1;marginBottom=0;whiteSpace=wrap;html=1;" vertex="1" parent="1">
          <mxGeometry x="354" y="380" width="136" height="60" as="geometry" />
        </mxCell>
        <mxCell id="nGuAZk_xyWCWXJKmBNWR-23" value="JobRequestQueue" style="text;strokeColor=none;fillColor=none;align=left;verticalAlign=middle;spacingLeft=4;spacingRight=4;overflow=hidden;points=[[0,0.5],[1,0.5]];portConstraint=eastwest;rotatable=0;whiteSpace=wrap;html=1;" vertex="1" parent="nGuAZk_xyWCWXJKmBNWR-21">
          <mxGeometry y="30" width="136" height="30" as="geometry" />
        </mxCell>
        <mxCell id="nGuAZk_xyWCWXJKmBNWR-34" style="edgeStyle=orthogonalEdgeStyle;rounded=0;orthogonalLoop=1;jettySize=auto;html=1;exitX=0.5;exitY=1;exitDx=0;exitDy=0;entryX=0.75;entryY=0;entryDx=0;entryDy=0;" edge="1" parent="1" source="nGuAZk_xyWCWXJKmBNWR-25" target="nGuAZk_xyWCWXJKmBNWR-10">
          <mxGeometry relative="1" as="geometry">
            <Array as="points">
              <mxPoint x="650" y="200" />
              <mxPoint x="650" y="290" />
              <mxPoint x="68" y="290" />
            </Array>
          </mxGeometry>
        </mxCell>
        <mxCell id="nGuAZk_xyWCWXJKmBNWR-36" style="edgeStyle=orthogonalEdgeStyle;rounded=0;orthogonalLoop=1;jettySize=auto;html=1;exitX=1;exitY=0.5;exitDx=0;exitDy=0;entryX=0;entryY=0.5;entryDx=0;entryDy=0;" edge="1" parent="1" source="nGuAZk_xyWCWXJKmBNWR-25" target="nGuAZk_xyWCWXJKmBNWR-33">
          <mxGeometry relative="1" as="geometry" />
        </mxCell>
        <mxCell id="nGuAZk_xyWCWXJKmBNWR-65" style="edgeStyle=orthogonalEdgeStyle;rounded=0;orthogonalLoop=1;jettySize=auto;html=1;exitX=0.5;exitY=1;exitDx=0;exitDy=0;entryX=0.5;entryY=0;entryDx=0;entryDy=0;" edge="1" parent="1" source="nGuAZk_xyWCWXJKmBNWR-25" target="nGuAZk_xyWCWXJKmBNWR-6">
          <mxGeometry relative="1" as="geometry">
            <Array as="points">
              <mxPoint x="610" y="280" />
              <mxPoint x="422" y="280" />
            </Array>
          </mxGeometry>
        </mxCell>
        <mxCell id="nGuAZk_xyWCWXJKmBNWR-25" value="FSMActor" style="shape=process;whiteSpace=wrap;html=1;backgroundOutline=1;" vertex="1" parent="1">
          <mxGeometry x="540" y="140" width="140" height="60" as="geometry" />
        </mxCell>
        <mxCell id="nGuAZk_xyWCWXJKmBNWR-29" value="" style="endArrow=none;dashed=1;html=1;dashPattern=1 3;strokeWidth=2;rounded=0;exitX=1;exitY=0.5;exitDx=0;exitDy=0;entryX=0;entryY=0.5;entryDx=0;entryDy=0;" edge="1" parent="1" source="nGuAZk_xyWCWXJKmBNWR-1" target="nGuAZk_xyWCWXJKmBNWR-25">
          <mxGeometry width="50" height="50" relative="1" as="geometry">
            <mxPoint x="390" y="280" as="sourcePoint" />
            <mxPoint x="440" y="230" as="targetPoint" />
          </mxGeometry>
        </mxCell>
        <mxCell id="nGuAZk_xyWCWXJKmBNWR-30" value="Create FSMActor link to QueueActor" style="text;html=1;align=center;verticalAlign=middle;resizable=0;points=[];autosize=1;strokeColor=none;fillColor=none;" vertex="1" parent="1">
          <mxGeometry x="312" y="140" width="220" height="30" as="geometry" />
        </mxCell>
        <mxCell id="nGuAZk_xyWCWXJKmBNWR-47" style="edgeStyle=orthogonalEdgeStyle;rounded=0;orthogonalLoop=1;jettySize=auto;html=1;exitX=0.5;exitY=1;exitDx=0;exitDy=0;" edge="1" parent="1" source="nGuAZk_xyWCWXJKmBNWR-33" target="nGuAZk_xyWCWXJKmBNWR-46">
          <mxGeometry relative="1" as="geometry" />
        </mxCell>
        <mxCell id="nGuAZk_xyWCWXJKmBNWR-33" value="TranActor" style="shape=process;whiteSpace=wrap;html=1;backgroundOutline=1;" vertex="1" parent="1">
          <mxGeometry x="880" y="140" width="140" height="60" as="geometry" />
        </mxCell>
        <mxCell id="nGuAZk_xyWCWXJKmBNWR-35" value="5 Tell ProxyActor JobRequest is handle by FSMActor" style="text;html=1;align=center;verticalAlign=middle;resizable=0;points=[];autosize=1;strokeColor=none;fillColor=none;" vertex="1" parent="1">
          <mxGeometry x="65" y="268" width="300" height="30" as="geometry" />
        </mxCell>
        <mxCell id="nGuAZk_xyWCWXJKmBNWR-37" value="5 Send JobRequest" style="text;html=1;align=center;verticalAlign=middle;resizable=0;points=[];autosize=1;strokeColor=none;fillColor=none;" vertex="1" parent="1">
          <mxGeometry x="710" y="140" width="130" height="30" as="geometry" />
        </mxCell>
        <mxCell id="nGuAZk_xyWCWXJKmBNWR-38" value="State" style="swimlane;fontStyle=0;childLayout=stackLayout;horizontal=1;startSize=30;horizontalStack=0;resizeParent=1;resizeParentMax=0;resizeLast=0;collapsible=1;marginBottom=0;whiteSpace=wrap;html=1;" vertex="1" parent="1">
          <mxGeometry x="540" y="50" width="140" height="90" as="geometry" />
        </mxCell>
        <mxCell id="nGuAZk_xyWCWXJKmBNWR-39" value="DriverActorRef" style="text;strokeColor=none;fillColor=none;align=left;verticalAlign=middle;spacingLeft=4;spacingRight=4;overflow=hidden;points=[[0,0.5],[1,0.5]];portConstraint=eastwest;rotatable=0;whiteSpace=wrap;html=1;" vertex="1" parent="nGuAZk_xyWCWXJKmBNWR-38">
          <mxGeometry y="30" width="140" height="30" as="geometry" />
        </mxCell>
        <mxCell id="nGuAZk_xyWCWXJKmBNWR-40" value="ProxyActorRef" style="text;strokeColor=none;fillColor=none;align=left;verticalAlign=middle;spacingLeft=4;spacingRight=4;overflow=hidden;points=[[0,0.5],[1,0.5]];portConstraint=eastwest;rotatable=0;whiteSpace=wrap;html=1;" vertex="1" parent="nGuAZk_xyWCWXJKmBNWR-38">
          <mxGeometry y="60" width="140" height="30" as="geometry" />
        </mxCell>
        <mxCell id="nGuAZk_xyWCWXJKmBNWR-42" value="State" style="swimlane;fontStyle=0;childLayout=stackLayout;horizontal=1;startSize=30;horizontalStack=0;resizeParent=1;resizeParentMax=0;resizeLast=0;collapsible=1;marginBottom=0;whiteSpace=wrap;html=1;" vertex="1" parent="1">
          <mxGeometry x="880" y="80" width="140" height="60" as="geometry" />
        </mxCell>
        <mxCell id="nGuAZk_xyWCWXJKmBNWR-56" style="edgeStyle=orthogonalEdgeStyle;rounded=0;orthogonalLoop=1;jettySize=auto;html=1;exitX=0;exitY=0.75;exitDx=0;exitDy=0;entryX=1;entryY=0.75;entryDx=0;entryDy=0;" edge="1" parent="1">
          <mxGeometry relative="1" as="geometry">
            <mxPoint x="100" y="370" as="targetPoint" />
            <mxPoint x="880" y="370" as="sourcePoint" />
            <Array as="points">
              <mxPoint x="780" y="370" />
              <mxPoint x="780" y="520" />
              <mxPoint x="190" y="520" />
              <mxPoint x="190" y="370" />
            </Array>
          </mxGeometry>
        </mxCell>
        <mxCell id="nGuAZk_xyWCWXJKmBNWR-46" value="WorkerActor" style="shape=process;whiteSpace=wrap;html=1;backgroundOutline=1;" vertex="1" parent="1">
          <mxGeometry x="880" y="320" width="140" height="60" as="geometry" />
        </mxCell>
        <mxCell id="nGuAZk_xyWCWXJKmBNWR-48" value="6 Translate JobRequst to Worker" style="text;html=1;align=center;verticalAlign=middle;resizable=0;points=[];autosize=1;strokeColor=none;fillColor=none;" vertex="1" parent="1">
          <mxGeometry x="750" y="250" width="200" height="30" as="geometry" />
        </mxCell>
        <mxCell id="nGuAZk_xyWCWXJKmBNWR-49" value="State" style="swimlane;fontStyle=0;childLayout=stackLayout;horizontal=1;startSize=30;horizontalStack=0;resizeParent=1;resizeParentMax=0;resizeLast=0;collapsible=1;marginBottom=0;whiteSpace=wrap;html=1;" vertex="1" parent="1">
          <mxGeometry x="880" y="380" width="140" height="90" as="geometry" />
        </mxCell>
        <mxCell id="nGuAZk_xyWCWXJKmBNWR-50" value="ProxyActorRef" style="text;strokeColor=none;fillColor=none;align=left;verticalAlign=middle;spacingLeft=4;spacingRight=4;overflow=hidden;points=[[0,0.5],[1,0.5]];portConstraint=eastwest;rotatable=0;whiteSpace=wrap;html=1;" vertex="1" parent="nGuAZk_xyWCWXJKmBNWR-49">
          <mxGeometry y="30" width="140" height="30" as="geometry" />
        </mxCell>
        <mxCell id="nGuAZk_xyWCWXJKmBNWR-51" value="Job Result" style="text;strokeColor=none;fillColor=none;align=left;verticalAlign=middle;spacingLeft=4;spacingRight=4;overflow=hidden;points=[[0,0.5],[1,0.5]];portConstraint=eastwest;rotatable=0;whiteSpace=wrap;html=1;" vertex="1" parent="nGuAZk_xyWCWXJKmBNWR-49">
          <mxGeometry y="60" width="140" height="30" as="geometry" />
        </mxCell>
        <mxCell id="nGuAZk_xyWCWXJKmBNWR-54" value="7 Send JobResult to ProxActor to Finish job" style="text;html=1;align=center;verticalAlign=middle;resizable=0;points=[];autosize=1;strokeColor=none;fillColor=none;" vertex="1" parent="1">
          <mxGeometry x="305" y="490" width="260" height="30" as="geometry" />
        </mxCell>
        <mxCell id="nGuAZk_xyWCWXJKmBNWR-32" value="4 Fetch JobRequest" style="text;html=1;align=center;verticalAlign=middle;resizable=0;points=[];autosize=1;strokeColor=none;fillColor=none;" vertex="1" parent="1">
          <mxGeometry x="430" y="250" width="130" height="30" as="geometry" />
        </mxCell>
        <mxCell id="nGuAZk_xyWCWXJKmBNWR-66" value="8. send JobFinishMsg to FSMActor&amp;nbsp;" style="text;html=1;align=center;verticalAlign=middle;resizable=0;points=[];autosize=1;strokeColor=none;fillColor=none;" vertex="1" parent="1">
          <mxGeometry x="250" y="220" width="210" height="30" as="geometry" />
        </mxCell>
        <mxCell id="nGuAZk_xyWCWXJKmBNWR-70" style="edgeStyle=orthogonalEdgeStyle;rounded=0;orthogonalLoop=1;jettySize=auto;html=1;exitX=0.5;exitY=0.5;exitDx=0;exitDy=0;exitPerimeter=0;entryX=0;entryY=0.25;entryDx=0;entryDy=0;" edge="1" parent="1" target="nGuAZk_xyWCWXJKmBNWR-1">
          <mxGeometry relative="1" as="geometry">
            <mxPoint x="-175" y="155" as="sourcePoint" />
          </mxGeometry>
        </mxCell>
        <mxCell id="nGuAZk_xyWCWXJKmBNWR-90" style="edgeStyle=orthogonalEdgeStyle;rounded=0;orthogonalLoop=1;jettySize=auto;html=1;exitX=0.25;exitY=1;exitDx=0;exitDy=0;entryX=0;entryY=0.5;entryDx=0;entryDy=0;" edge="1" parent="1" source="nGuAZk_xyWCWXJKmBNWR-76" target="nGuAZk_xyWCWXJKmBNWR-10">
          <mxGeometry relative="1" as="geometry" />
        </mxCell>
        <mxCell id="nGuAZk_xyWCWXJKmBNWR-76" value="RequestActor" style="shape=process;whiteSpace=wrap;html=1;backgroundOutline=1;" vertex="1" parent="1">
          <mxGeometry x="-300" y="140" width="140" height="60" as="geometry" />
        </mxCell>
        <mxCell id="nGuAZk_xyWCWXJKmBNWR-83" value="State" style="swimlane;fontStyle=0;childLayout=stackLayout;horizontal=1;startSize=30;horizontalStack=0;resizeParent=1;resizeParentMax=0;resizeLast=0;collapsible=1;marginBottom=0;whiteSpace=wrap;html=1;" vertex="1" parent="1">
          <mxGeometry x="-300" y="80" width="140" height="60" as="geometry" />
        </mxCell>
        <mxCell id="nGuAZk_xyWCWXJKmBNWR-84" value="ProxyActorRef" style="text;strokeColor=none;fillColor=none;align=left;verticalAlign=middle;spacingLeft=4;spacingRight=4;overflow=hidden;points=[[0,0.5],[1,0.5]];portConstraint=eastwest;rotatable=0;whiteSpace=wrap;html=1;" vertex="1" parent="nGuAZk_xyWCWXJKmBNWR-83">
          <mxGeometry y="30" width="140" height="30" as="geometry" />
        </mxCell>
        <mxCell id="nGuAZk_xyWCWXJKmBNWR-88" value="8 Send JobReuslt" style="text;html=1;align=center;verticalAlign=middle;resizable=0;points=[];autosize=1;strokeColor=none;fillColor=none;" vertex="1" parent="1">
          <mxGeometry x="-190" y="310" width="120" height="30" as="geometry" />
        </mxCell>
        <mxCell id="nGuAZk_xyWCWXJKmBNWR-91" value="9 Kill Proxy Actor" style="text;html=1;align=center;verticalAlign=middle;resizable=0;points=[];autosize=1;strokeColor=none;fillColor=none;" vertex="1" parent="1">
          <mxGeometry x="-270" y="350" width="110" height="30" as="geometry" />
        </mxCell>
      </root>
    </mxGraphModel>
  </diagram>
</mxfile>
